<svg width="32" height="32" viewBox="0 0 32 32" fill="none" xmlns="http://www.w3.org/2000/svg">
<path d="M18.707 28.3902H19.0114V28.9158C19.0114 29.0552 18.956 29.1889 18.8574 29.2875C18.7588 29.3861 18.6251 29.4414 18.4857 29.4414H13.9089C13.7695 29.4414 13.6358 29.3861 13.5372 29.2875C13.4386 29.1889 13.3832 29.0552 13.3832 28.9158V28.3902H13.6876H18.707ZM19.0114 25.6274H18.707H13.6876H13.3832V2.98017C13.3832 2.84077 13.4386 2.70707 13.5372 2.6085C13.6358 2.50992 13.7695 2.45454 13.9089 2.45454H18.4857C18.6251 2.45454 18.7588 2.50992 18.8574 2.6085C18.956 2.70707 19.0114 2.84077 19.0114 2.98017V25.6274ZM28.1582 28.3902H28.4855V28.9158C28.4855 29.0552 28.4301 29.1889 28.3316 29.2875C28.233 29.3861 28.0993 29.4414 27.9599 29.4414H23.3296C23.1902 29.4414 23.0565 29.3861 22.9579 29.2875C22.8594 29.1889 22.804 29.0552 22.804 28.9158V28.3902H23.1313H28.1582ZM28.4855 25.6274H28.1582H23.1313H22.804V8.31986C22.804 8.18045 22.8594 8.04676 22.9579 7.94819C23.0565 7.84961 23.1902 7.79423 23.3296 7.79423H27.9599C28.0993 7.79423 28.233 7.84961 28.3315 7.94819C28.4301 8.04676 28.4855 8.18045 28.4855 8.31986V25.6274ZM9.28622 28.3902H9.59063V28.9158C9.59063 29.0552 9.53525 29.1889 9.43668 29.2875C9.3381 29.3861 9.20441 29.4414 9.065 29.4414H4.43473C4.29532 29.4414 4.16163 29.3861 4.06306 29.2875C3.96448 29.1889 3.9091 29.0552 3.9091 28.9158V28.3902H4.2364H9.28622ZM9.59063 25.6274H9.26333H4.2364H3.9091V6.79423C3.9091 6.65483 3.96448 6.52113 4.06306 6.42256C4.16163 6.32399 4.29532 6.26861 4.43473 6.26861H9.065C9.20441 6.26861 9.3381 6.32399 9.43668 6.42256C9.53525 6.52113 9.59063 6.65483 9.59063 6.79423V25.6274Z" stroke="#272525" stroke-width="2"/>
</svg>
