<svg width="29" height="28" viewBox="0 0 29 28" fill="none" xmlns="http://www.w3.org/2000/svg">
<path d="M5.98728 22.8007H23.6404C24.4199 22.7984 25.1668 22.4878 25.718 21.9366C26.2692 21.3854 26.5798 20.6385 26.5822 19.859V2.94175C26.5798 2.16226 26.2692 1.41535 25.718 0.864169C25.1668 0.312983 24.4199 0.00230825 23.6404 0H5.98728C5.20779 0.00230825 4.46089 0.312983 3.9097 0.864169C3.35852 1.41535 3.04784 2.16226 3.04553 2.94175V25.0075C3.04784 25.787 3.35852 26.5339 3.9097 27.0851C4.46089 27.6363 5.20779 27.9469 5.98728 27.9492H25.4788C26.0677 27.9492 26.5822 27.4347 26.5822 26.8467C26.5822 26.2579 26.0677 25.7425 25.4797 25.7425H6.72228C6.33269 25.7413 5.95937 25.5861 5.6838 25.3107C5.40823 25.0353 5.25279 24.6621 5.25141 24.2725V22.7272C5.47191 22.7272 5.76591 22.8007 5.98641 22.8007H5.98728ZM8.92991 1.47088H13.3425V8.67913L11.7982 7.06038C11.4307 6.76638 10.9153 6.76638 10.6213 7.06038L8.92991 8.68V1.47V1.47088Z" fill="#272525"/>
</svg>
