<svg width="28" height="28" viewBox="0 0 28 28" fill="none" xmlns="http://www.w3.org/2000/svg">
<path d="M16.411 0H11.589C11.1627 0 10.7538 0.155263 10.4524 0.431632C10.151 0.708001 9.98163 1.08284 9.98163 1.47368V26.5263C9.98163 26.9172 10.151 27.292 10.4524 27.5684C10.7538 27.8447 11.1627 28 11.589 28H16.411C16.8373 28 17.2461 27.8447 17.5476 27.5684C17.849 27.292 18.0184 26.9172 18.0184 26.5263V1.47368C18.0184 1.08284 17.849 0.708001 17.5476 0.431632C17.2461 0.155263 16.8373 0 16.411 0ZM16.6441 25.0526H11.3559V24.3158H16.6441V25.0526ZM26.3926 5.15789H21.5143C21.0881 5.15789 20.6792 5.31316 20.3778 5.58953C20.0763 5.8659 19.907 6.24073 19.907 6.63158V26.5263C19.907 26.9172 20.0763 27.292 20.3778 27.5684C20.6792 27.8447 21.0881 28 21.5143 28H26.3926C26.8189 28 27.2278 27.8447 27.5292 27.5684C27.8307 27.292 28 26.9172 28 26.5263V6.63158C28 6.24073 27.8307 5.8659 27.5292 5.58953C27.2278 5.31316 26.8189 5.15789 26.3926 5.15789ZM26.6016 25.0526H21.3054V24.3158H26.6016V25.0526ZM6.50976 3.68421H1.60735C1.18105 3.68421 0.772217 3.83947 0.470781 4.11584C0.169345 4.39221 0 4.76705 0 5.15789V26.5263C0 26.9172 0.169345 27.292 0.470781 27.5684C0.772217 27.8447 1.18105 28 1.60735 28H6.48565C6.91194 28 7.32078 27.8447 7.62221 27.5684C7.92365 27.292 8.09299 26.9172 8.09299 26.5263V5.15789C8.09299 4.76705 7.92365 4.39221 7.62221 4.11584C7.32078 3.83947 6.91194 3.68421 6.48565 3.68421H6.50976ZM6.71871 25.0526H1.39839V24.3158H6.6946L6.71871 25.0526Z" fill="#FF4242"/>
</svg>
