<svg width="33" height="32" viewBox="0 0 33 32" fill="none" xmlns="http://www.w3.org/2000/svg">
<path d="M6.7713 26.058H26.9463C27.8371 26.0554 28.6908 25.7003 29.3207 25.0704C29.9506 24.4405 30.3057 23.5868 30.3083 22.696V3.362C30.3057 2.47115 29.9506 1.61755 29.3207 0.987621C28.6908 0.357695 27.8371 0.002638 26.9463 0H6.7713C5.88046 0.002638 5.02685 0.357695 4.39692 0.987621C3.767 1.61755 3.41194 2.47115 3.4093 3.362V28.58C3.41194 29.4708 3.767 30.3245 4.39692 30.9544C5.02685 31.5843 5.88046 31.9394 6.7713 31.942H29.0473C29.7203 31.942 30.3083 31.354 30.3083 30.682C30.3083 30.009 29.7203 29.42 29.0483 29.42H7.6113C7.16605 29.4187 6.7394 29.2413 6.42446 28.9265C6.10953 28.6118 5.93188 28.1852 5.9303 27.74V25.974C6.1823 25.974 6.5183 26.058 6.7703 26.058H6.7713ZM10.1343 1.681H15.1773V9.919L13.4123 8.069C12.9923 7.733 12.4033 7.733 12.0673 8.069L10.1343 9.92V1.68V1.681Z" fill="#FF4242"/>
</svg>
