<svg width="28" height="28" viewBox="0 0 28 28" fill="none" xmlns="http://www.w3.org/2000/svg">
<path d="M24.3731 21.8339L24.3723 21.8322C23.9274 20.8781 23.2906 20.0062 22.4691 19.2407L24.3731 21.8339ZM24.3731 21.8339C24.8373 22.8259 25.0688 23.8728 25.0738 24.9518C25.0723 25.8062 24.3775 26.5 23.5228 26.5H4.96006C4.10444 26.5 3.40909 25.8047 3.40909 24.949C3.40909 23.8787 3.64269 22.8367 4.11087 21.8315C4.55584 20.8776 5.19263 20.0058 6.0141 19.2404C7.66997 17.7023 9.87795 16.8259 12.0516 16.8259H16.4313C18.6 16.8259 20.8134 17.7027 22.469 19.2406L24.3731 21.8339ZM20.1693 7.42511C20.1693 10.692 17.5056 13.3557 14.2387 13.3557C10.9704 13.3557 8.30813 10.696 8.30813 7.43058C8.30813 4.16371 10.9718 1.5 14.2387 1.5C17.507 1.5 20.1693 4.15968 20.1693 7.42511Z" stroke="#272525" stroke-width="3"/>
</svg>
