<svg width="32" height="32" viewBox="0 0 32 32" fill="none" xmlns="http://www.w3.org/2000/svg">
<path d="M28.0491 24.8622L28.0483 24.8605C27.5276 23.7439 26.783 22.7252 25.8248 21.8324L28.0491 24.8622ZM28.0491 24.8622C28.5929 26.0245 28.8642 27.2518 28.8701 28.516C28.8685 29.6109 27.9785 30.5 26.8832 30.5H5.66864C4.57245 30.5 3.68182 29.6094 3.68182 28.5132C3.68182 27.2579 3.95594 26.0365 4.50358 24.8605L28.0491 24.8622ZM23.2649 8.48584C23.2649 12.3378 20.1247 15.4779 16.2728 15.4779C12.4195 15.4779 9.28073 12.3426 9.28073 8.49209C9.28073 4.64018 12.4209 1.5 16.2728 1.5C20.1262 1.5 23.2649 4.63537 23.2649 8.48584ZM18.7786 19.0153C21.3128 19.0153 23.8942 20.0389 25.8247 21.8323L4.50389 24.8598C5.02469 23.7433 5.76939 22.7246 6.72772 21.8318C8.6585 20.0385 11.2334 19.0153 13.7733 19.0153H18.7786Z" stroke="#FF4242" stroke-width="3"/>
</svg>
